# xmcd CD database file
#
# Track frame offsets:
#	150
#	12810
#	30942
#	59302
#	71987
#	85270
#	98694
#	114424
#	126717
#	143126
#	159244
#	172043
#	189026
#	205297
#
# Disc length: 2901 seconds
#
# Revision: 0
# Processed by: cddbd v1.5.1PL2 Copyright (c) Steve Scherf et al.
# Submitted via: cdripper 1,0,33,916
#
DISCID=b80b530e
DTITLE=Bobby Cash - State Of My Heart
DYEAR=2006
DGENRE=Country
TTITLE0=Tumbleweed
TTITLE1=The First Time
TTITLE2=Spanish Rose
TTITLE3=State Of My Heart
TTITLE4=One Good Night
TTITLE5=Sentimental
TTITLE6=Can't Help Falling In Love
TTITLE7=I Feel So Blue
TTITLE8=I'm Not Alone
TTITLE9=Tribute To Johnny Cash
TTITLE10=Dream Come True
TTITLE11=Baby Baby
TTITLE12=In The Garden
TTITLE13=Solamente Yo
EXTD=YEAR: 2006
EXTT0=
EXTT1=
EXTT2=
EXTT3=
EXTT4=
EXTT5=
EXTT6=
EXTT7=
EXTT8=
EXTT9=
EXTT10=
EXTT11=
EXTT12=
EXTT13=
PLAYORDER=
